<?xml version="1.0" encoding="UTF-8" standalone="no"?>
<!DOCTYPE svg PUBLIC "-//W3C//DTD SVG 1.1//EN"
 "http://www.w3.org/Graphics/SVG/1.1/DTD/svg11.dtd">
<!-- Generated by graphviz version 3.0.0 (20220226.1711)
 -->
<!-- Title: dependencies Pages: 1 -->
<svg width="3219pt" height="247pt"
 viewBox="0.00 0.00 3219.00 246.80" xmlns="http://www.w3.org/2000/svg" xmlns:xlink="http://www.w3.org/1999/xlink">
<g id="graph0" class="graph" transform="scale(1 1) rotate(0) translate(4 242.8)">
<title>dependencies</title>
<polygon fill="white" stroke="transparent" points="-4,4 -4,-242.8 3215,-242.8 3215,4 -4,4"/>
<text text-anchor="middle" x="1605.5" y="-8.2" font-family="sans-serif" font-size="14.00">dependencies</text>
<g id="clust1" class="cluster">
<title>cluster_AppModule</title>
<polygon fill="none" stroke="black" stroke-dasharray="1,5" points="8,-32.8 8,-230.8 3203,-230.8 3203,-32.8 8,-32.8"/>
</g>
<g id="clust2" class="cluster">
<title>cluster_AppModule_declarations</title>
<polygon fill="none" stroke="black" points="168,-40.8 168,-92.8 3195,-92.8 3195,-40.8 168,-40.8"/>
</g>
<g id="clust22" class="cluster">
<title>cluster_AppModule_imports</title>
<polygon fill="none" stroke="black" points="16,-40.8 16,-92.8 160,-92.8 160,-40.8 16,-40.8"/>
</g>
<g id="clust24" class="cluster">
<title>cluster_AppModule_bootstrap</title>
<polygon fill="none" stroke="black" points="1484,-170.8 1484,-222.8 1608,-222.8 1608,-170.8 1484,-170.8"/>
</g>
<!-- AppComponent -->
<g id="node1" class="node">
<title>AppComponent</title>
<polygon fill="#ffffb3" stroke="black" points="3186.94,-84.8 3081.06,-84.8 3081.06,-48.8 3186.94,-48.8 3186.94,-84.8"/>
<text text-anchor="middle" x="3134" y="-62.6" font-family="Times,serif" font-size="14.00">AppComponent</text>
</g>
<!-- AppModule -->
<g id="node20" class="node">
<title>AppModule</title>
<polygon fill="#8dd3c7" stroke="black" points="1587.66,-149.8 1584.66,-153.8 1563.66,-153.8 1560.66,-149.8 1504.34,-149.8 1504.34,-113.8 1587.66,-113.8 1587.66,-149.8"/>
<text text-anchor="middle" x="1546" y="-127.6" font-family="Times,serif" font-size="14.00">AppModule</text>
</g>
<!-- AppComponent&#45;&gt;AppModule -->
<g id="edge1" class="edge">
<title>AppComponent&#45;&gt;AppModule</title>
<path fill="none" stroke="black" d="M3134,-84.95C3134,-108.56 3134,-146.8 3134,-146.8 3134,-146.8 1598.07,-146.8 1598.07,-146.8"/>
<polygon fill="black" stroke="black" points="1598.07,-143.3 1588.07,-146.8 1598.07,-150.3 1598.07,-143.3"/>
</g>
<!-- BuscaEtiquetaComponent -->
<g id="node2" class="node">
<title>BuscaEtiquetaComponent</title>
<polygon fill="#ffffb3" stroke="black" points="3063.19,-84.8 2900.81,-84.8 2900.81,-48.8 3063.19,-48.8 3063.19,-84.8"/>
<text text-anchor="middle" x="2982" y="-62.6" font-family="Times,serif" font-size="14.00">BuscaEtiquetaComponent</text>
</g>
<!-- BuscaEtiquetaComponent&#45;&gt;AppModule -->
<g id="edge2" class="edge">
<title>BuscaEtiquetaComponent&#45;&gt;AppModule</title>
<path fill="none" stroke="black" d="M2982,-84.81C2982,-107.29 2982,-142.8 2982,-142.8 2982,-142.8 1597.81,-142.8 1597.81,-142.8"/>
<polygon fill="black" stroke="black" points="1597.81,-139.3 1587.81,-142.8 1597.81,-146.3 1597.81,-139.3"/>
</g>
<!-- BuscaLivroComponent -->
<g id="node3" class="node">
<title>BuscaLivroComponent</title>
<polygon fill="#ffffb3" stroke="black" points="2883.15,-84.8 2736.85,-84.8 2736.85,-48.8 2883.15,-48.8 2883.15,-84.8"/>
<text text-anchor="middle" x="2810" y="-62.6" font-family="Times,serif" font-size="14.00">BuscaLivroComponent</text>
</g>
<!-- BuscaLivroComponent&#45;&gt;AppModule -->
<g id="edge3" class="edge">
<title>BuscaLivroComponent&#45;&gt;AppModule</title>
<path fill="none" stroke="black" d="M2810,-84.84C2810,-106.46 2810,-139.8 2810,-139.8 2810,-139.8 1597.7,-139.8 1597.7,-139.8"/>
<polygon fill="black" stroke="black" points="1597.7,-136.3 1587.7,-139.8 1597.7,-143.3 1597.7,-136.3"/>
</g>
<!-- CadEnderecoComponent -->
<g id="node4" class="node">
<title>CadEnderecoComponent</title>
<polygon fill="#ffffb3" stroke="black" points="2718.24,-84.8 2561.76,-84.8 2561.76,-48.8 2718.24,-48.8 2718.24,-84.8"/>
<text text-anchor="middle" x="2640" y="-62.6" font-family="Times,serif" font-size="14.00">CadEnderecoComponent</text>
</g>
<!-- CadEnderecoComponent&#45;&gt;AppModule -->
<g id="edge4" class="edge">
<title>CadEnderecoComponent&#45;&gt;AppModule</title>
<path fill="none" stroke="black" d="M2640,-84.93C2640,-105.37 2640,-135.8 2640,-135.8 2640,-135.8 1597.88,-135.8 1597.88,-135.8"/>
<polygon fill="black" stroke="black" points="1597.88,-132.3 1587.88,-135.8 1597.88,-139.3 1597.88,-132.3"/>
</g>
<!-- CadastrarLivroComponent -->
<g id="node5" class="node">
<title>CadastrarLivroComponent</title>
<polygon fill="#ffffb3" stroke="black" points="2544.08,-84.8 2377.92,-84.8 2377.92,-48.8 2544.08,-48.8 2544.08,-84.8"/>
<text text-anchor="middle" x="2461" y="-62.6" font-family="Times,serif" font-size="14.00">CadastrarLivroComponent</text>
</g>
<!-- CadastrarLivroComponent&#45;&gt;AppModule -->
<g id="edge5" class="edge">
<title>CadastrarLivroComponent&#45;&gt;AppModule</title>
<path fill="none" stroke="black" d="M2461,-84.91C2461,-104.14 2461,-131.8 2461,-131.8 2461,-131.8 1597.69,-131.8 1597.69,-131.8"/>
<polygon fill="black" stroke="black" points="1597.69,-128.3 1587.69,-131.8 1597.69,-135.3 1597.69,-128.3"/>
</g>
<!-- CarouselInicioComponent -->
<g id="node6" class="node">
<title>CarouselInicioComponent</title>
<polygon fill="#ffffb3" stroke="black" points="2359.75,-84.8 2196.25,-84.8 2196.25,-48.8 2359.75,-48.8 2359.75,-84.8"/>
<text text-anchor="middle" x="2278" y="-62.6" font-family="Times,serif" font-size="14.00">CarouselInicioComponent</text>
</g>
<!-- CarouselInicioComponent&#45;&gt;AppModule -->
<g id="edge6" class="edge">
<title>CarouselInicioComponent&#45;&gt;AppModule</title>
<path fill="none" stroke="black" d="M2278,-85.07C2278,-103.36 2278,-128.8 2278,-128.8 2278,-128.8 1597.72,-128.8 1597.72,-128.8"/>
<polygon fill="black" stroke="black" points="1597.72,-125.3 1587.72,-128.8 1597.72,-132.3 1597.72,-125.3"/>
</g>
<!-- CarrinhoComponent -->
<g id="node7" class="node">
<title>CarrinhoComponent</title>
<polygon fill="#ffffb3" stroke="black" points="2178.6,-84.8 2047.4,-84.8 2047.4,-48.8 2178.6,-48.8 2178.6,-84.8"/>
<text text-anchor="middle" x="2113" y="-62.6" font-family="Times,serif" font-size="14.00">CarrinhoComponent</text>
</g>
<!-- CarrinhoComponent&#45;&gt;AppModule -->
<g id="edge7" class="edge">
<title>CarrinhoComponent&#45;&gt;AppModule</title>
<path fill="none" stroke="black" d="M2113,-84.83C2113,-101.86 2113,-124.8 2113,-124.8 2113,-124.8 1597.69,-124.8 1597.69,-124.8"/>
<polygon fill="black" stroke="black" points="1597.69,-121.3 1587.69,-124.8 1597.69,-128.3 1597.69,-121.3"/>
</g>
<!-- DeletarLivroComponent -->
<g id="node8" class="node">
<title>DeletarLivroComponent</title>
<polygon fill="#ffffb3" stroke="black" points="2029.63,-84.8 1876.37,-84.8 1876.37,-48.8 2029.63,-48.8 2029.63,-84.8"/>
<text text-anchor="middle" x="1953" y="-62.6" font-family="Times,serif" font-size="14.00">DeletarLivroComponent</text>
</g>
<!-- DeletarLivroComponent&#45;&gt;AppModule -->
<g id="edge8" class="edge">
<title>DeletarLivroComponent&#45;&gt;AppModule</title>
<path fill="none" stroke="black" d="M1953,-84.81C1953,-100.85 1953,-121.8 1953,-121.8 1953,-121.8 1598.02,-121.8 1598.02,-121.8"/>
<polygon fill="black" stroke="black" points="1598.02,-118.3 1588.02,-121.8 1598.02,-125.3 1598.02,-118.3"/>
</g>
<!-- EditarLivroComponent -->
<g id="node9" class="node">
<title>EditarLivroComponent</title>
<polygon fill="#ffffb3" stroke="black" points="1858.14,-84.8 1711.86,-84.8 1711.86,-48.8 1858.14,-48.8 1858.14,-84.8"/>
<text text-anchor="middle" x="1785" y="-62.6" font-family="Times,serif" font-size="14.00">EditarLivroComponent</text>
</g>
<!-- EditarLivroComponent&#45;&gt;AppModule -->
<g id="edge9" class="edge">
<title>EditarLivroComponent&#45;&gt;AppModule</title>
<path fill="none" stroke="black" d="M1785,-84.92C1785,-99.58 1785,-117.8 1785,-117.8 1785,-117.8 1597.9,-117.8 1597.9,-117.8"/>
<polygon fill="black" stroke="black" points="1597.9,-114.3 1587.9,-117.8 1597.9,-121.3 1597.9,-114.3"/>
</g>
<!-- EnderecoComponent -->
<g id="node10" class="node">
<title>EnderecoComponent</title>
<polygon fill="#ffffb3" stroke="black" points="1694.19,-84.8 1559.81,-84.8 1559.81,-48.8 1694.19,-48.8 1694.19,-84.8"/>
<text text-anchor="middle" x="1627" y="-62.6" font-family="Times,serif" font-size="14.00">EnderecoComponent</text>
</g>
<!-- EnderecoComponent&#45;&gt;AppModule -->
<g id="edge10" class="edge">
<title>EnderecoComponent&#45;&gt;AppModule</title>
<path fill="none" stroke="black" d="M1573.87,-84.91C1573.87,-84.91 1573.87,-103.79 1573.87,-103.79"/>
<polygon fill="black" stroke="black" points="1570.37,-103.79 1573.87,-113.79 1577.37,-103.79 1570.37,-103.79"/>
</g>
<!-- FaleConoscoComponent -->
<g id="node11" class="node">
<title>FaleConoscoComponent</title>
<polygon fill="#ffffb3" stroke="black" points="1542.44,-84.8 1387.56,-84.8 1387.56,-48.8 1542.44,-48.8 1542.44,-84.8"/>
<text text-anchor="middle" x="1465" y="-62.6" font-family="Times,serif" font-size="14.00">FaleConoscoComponent</text>
</g>
<!-- FaleConoscoComponent&#45;&gt;AppModule -->
<g id="edge11" class="edge">
<title>FaleConoscoComponent&#45;&gt;AppModule</title>
<path fill="none" stroke="black" d="M1523.19,-84.91C1523.19,-84.91 1523.19,-103.79 1523.19,-103.79"/>
<polygon fill="black" stroke="black" points="1519.69,-103.79 1523.19,-113.79 1526.69,-103.79 1519.69,-103.79"/>
</g>
<!-- FooterComponent -->
<g id="node12" class="node">
<title>FooterComponent</title>
<polygon fill="#ffffb3" stroke="black" points="1369.88,-84.8 1252.12,-84.8 1252.12,-48.8 1369.88,-48.8 1369.88,-84.8"/>
<text text-anchor="middle" x="1311" y="-62.6" font-family="Times,serif" font-size="14.00">FooterComponent</text>
</g>
<!-- FooterComponent&#45;&gt;AppModule -->
<g id="edge12" class="edge">
<title>FooterComponent&#45;&gt;AppModule</title>
<path fill="none" stroke="black" d="M1311,-84.92C1311,-99.58 1311,-117.8 1311,-117.8 1311,-117.8 1494.26,-117.8 1494.26,-117.8"/>
<polygon fill="black" stroke="black" points="1494.26,-121.3 1504.26,-117.8 1494.26,-114.3 1494.26,-121.3"/>
</g>
<!-- FuncionarioComponent -->
<g id="node13" class="node">
<title>FuncionarioComponent</title>
<polygon fill="#ffffb3" stroke="black" points="1234.49,-84.8 1085.51,-84.8 1085.51,-48.8 1234.49,-48.8 1234.49,-84.8"/>
<text text-anchor="middle" x="1160" y="-62.6" font-family="Times,serif" font-size="14.00">FuncionarioComponent</text>
</g>
<!-- FuncionarioComponent&#45;&gt;AppModule -->
<g id="edge13" class="edge">
<title>FuncionarioComponent&#45;&gt;AppModule</title>
<path fill="none" stroke="black" d="M1160,-84.81C1160,-100.85 1160,-121.8 1160,-121.8 1160,-121.8 1494.32,-121.8 1494.32,-121.8"/>
<polygon fill="black" stroke="black" points="1494.32,-125.3 1504.32,-121.8 1494.32,-118.3 1494.32,-125.3"/>
</g>
<!-- HeaderComponent -->
<g id="node14" class="node">
<title>HeaderComponent</title>
<polygon fill="#ffffb3" stroke="black" points="1067.75,-84.8 946.25,-84.8 946.25,-48.8 1067.75,-48.8 1067.75,-84.8"/>
<text text-anchor="middle" x="1007" y="-62.6" font-family="Times,serif" font-size="14.00">HeaderComponent</text>
</g>
<!-- HeaderComponent&#45;&gt;AppModule -->
<g id="edge14" class="edge">
<title>HeaderComponent&#45;&gt;AppModule</title>
<path fill="none" stroke="black" d="M1007,-84.83C1007,-101.86 1007,-124.8 1007,-124.8 1007,-124.8 1494.15,-124.8 1494.15,-124.8"/>
<polygon fill="black" stroke="black" points="1494.15,-128.3 1504.15,-124.8 1494.15,-121.3 1494.15,-128.3"/>
</g>
<!-- HomeComponent -->
<g id="node15" class="node">
<title>HomeComponent</title>
<polygon fill="#ffffb3" stroke="black" points="927.55,-84.8 812.45,-84.8 812.45,-48.8 927.55,-48.8 927.55,-84.8"/>
<text text-anchor="middle" x="870" y="-62.6" font-family="Times,serif" font-size="14.00">HomeComponent</text>
</g>
<!-- HomeComponent&#45;&gt;AppModule -->
<g id="edge15" class="edge">
<title>HomeComponent&#45;&gt;AppModule</title>
<path fill="none" stroke="black" d="M870,-85.07C870,-103.36 870,-128.8 870,-128.8 870,-128.8 1494.22,-128.8 1494.22,-128.8"/>
<polygon fill="black" stroke="black" points="1494.22,-132.3 1504.22,-128.8 1494.22,-125.3 1494.22,-132.3"/>
</g>
<!-- LivroComponent -->
<g id="node16" class="node">
<title>LivroComponent</title>
<polygon fill="#ffffb3" stroke="black" points="794.44,-84.8 681.56,-84.8 681.56,-48.8 794.44,-48.8 794.44,-84.8"/>
<text text-anchor="middle" x="738" y="-62.6" font-family="Times,serif" font-size="14.00">LivroComponent</text>
</g>
<!-- LivroComponent&#45;&gt;AppModule -->
<g id="edge16" class="edge">
<title>LivroComponent&#45;&gt;AppModule</title>
<path fill="none" stroke="black" d="M738,-84.91C738,-104.14 738,-131.8 738,-131.8 738,-131.8 1494.26,-131.8 1494.26,-131.8"/>
<polygon fill="black" stroke="black" points="1494.26,-135.3 1504.26,-131.8 1494.26,-128.3 1494.26,-135.3"/>
</g>
<!-- MeusPedidosComponent -->
<g id="node17" class="node">
<title>MeusPedidosComponent</title>
<polygon fill="#ffffb3" stroke="black" points="663.28,-84.8 506.72,-84.8 506.72,-48.8 663.28,-48.8 663.28,-84.8"/>
<text text-anchor="middle" x="585" y="-62.6" font-family="Times,serif" font-size="14.00">MeusPedidosComponent</text>
</g>
<!-- MeusPedidosComponent&#45;&gt;AppModule -->
<g id="edge17" class="edge">
<title>MeusPedidosComponent&#45;&gt;AppModule</title>
<path fill="none" stroke="black" d="M585,-84.93C585,-105.37 585,-135.8 585,-135.8 585,-135.8 1494.09,-135.8 1494.09,-135.8"/>
<polygon fill="black" stroke="black" points="1494.09,-139.3 1504.09,-135.8 1494.09,-132.3 1494.09,-139.3"/>
</g>
<!-- MinhaContaComponent -->
<g id="node18" class="node">
<title>MinhaContaComponent</title>
<polygon fill="#ffffb3" stroke="black" points="488.82,-84.8 337.18,-84.8 337.18,-48.8 488.82,-48.8 488.82,-84.8"/>
<text text-anchor="middle" x="413" y="-62.6" font-family="Times,serif" font-size="14.00">MinhaContaComponent</text>
</g>
<!-- MinhaContaComponent&#45;&gt;AppModule -->
<g id="edge18" class="edge">
<title>MinhaContaComponent&#45;&gt;AppModule</title>
<path fill="none" stroke="black" d="M413,-84.84C413,-106.46 413,-139.8 413,-139.8 413,-139.8 1494.33,-139.8 1494.33,-139.8"/>
<polygon fill="black" stroke="black" points="1494.33,-143.3 1504.33,-139.8 1494.33,-136.3 1494.33,-143.3"/>
</g>
<!-- PagamentoComponent -->
<g id="node19" class="node">
<title>PagamentoComponent</title>
<polygon fill="#ffffb3" stroke="black" points="319.54,-84.8 176.46,-84.8 176.46,-48.8 319.54,-48.8 319.54,-84.8"/>
<text text-anchor="middle" x="248" y="-62.6" font-family="Times,serif" font-size="14.00">PagamentoComponent</text>
</g>
<!-- PagamentoComponent&#45;&gt;AppModule -->
<g id="edge19" class="edge">
<title>PagamentoComponent&#45;&gt;AppModule</title>
<path fill="none" stroke="black" d="M248,-84.81C248,-107.29 248,-142.8 248,-142.8 248,-142.8 1494.28,-142.8 1494.28,-142.8"/>
<polygon fill="black" stroke="black" points="1494.28,-146.3 1504.28,-142.8 1494.28,-139.3 1494.28,-146.3"/>
</g>
<!-- AppComponent  -->
<g id="node22" class="node">
<title>AppComponent </title>
<polygon fill="#80b1d3" stroke="black" points="1600.44,-214.8 1491.56,-214.8 1491.56,-178.8 1600.44,-178.8 1600.44,-214.8"/>
<text text-anchor="middle" x="1546" y="-192.6" font-family="Times,serif" font-size="14.00">AppComponent </text>
</g>
<!-- AppModule&#45;&gt;AppComponent  -->
<g id="edge21" class="edge">
<title>AppModule&#45;&gt;AppComponent </title>
<path fill="none" stroke="black" stroke-dasharray="1,5" d="M1546,-149.91C1546,-149.91 1546,-168.79 1546,-168.79"/>
<polygon fill="black" stroke="black" points="1542.5,-168.79 1546,-178.79 1549.5,-168.79 1542.5,-168.79"/>
</g>
<!-- AppRoutingModule -->
<g id="node21" class="node">
<title>AppRoutingModule</title>
<polygon fill="#8dd3c7" stroke="black" points="152.28,-84.8 149.28,-88.8 128.28,-88.8 125.28,-84.8 23.72,-84.8 23.72,-48.8 152.28,-48.8 152.28,-84.8"/>
<text text-anchor="middle" x="88" y="-62.6" font-family="Times,serif" font-size="14.00">AppRoutingModule</text>
</g>
<!-- AppRoutingModule&#45;&gt;AppModule -->
<g id="edge20" class="edge">
<title>AppRoutingModule&#45;&gt;AppModule</title>
<path fill="none" stroke="black" d="M88,-84.95C88,-108.56 88,-146.8 88,-146.8 88,-146.8 1494.33,-146.8 1494.33,-146.8"/>
<polygon fill="black" stroke="black" points="1494.33,-150.3 1504.33,-146.8 1494.33,-143.3 1494.33,-150.3"/>
</g>
</g>
</svg>
